<?xml version="1.0" encoding="UTF-8" standalone="no"?>
<!DOCTYPE svg PUBLIC "-//W3C//DTD SVG 1.1//EN" "http://www.w3.org/Graphics/SVG/1.1/DTD/svg11.dtd">
<svg version="1.1" xmlns="http://www.w3.org/2000/svg" xmlns:xlink="http://www.w3.org/1999/xlink" preserveAspectRatio="xMidYMid meet" viewBox="0 0 543 295" width="543" height="295"><defs><path d="M157.05 212.99C152.32 212.94 149.51 209.33 149.51 203.33C149.51 197.52 152.09 194.1 156.68 193.96C158.69 193.92 160.71 193.92 163.66 193.92C158.55 183.19 154.05 173.4 149.23 163.93C148.53 162.57 146.51 162.57 145.06 162.48C134.33 162.01 123.55 161.96 112.82 161.17C109.92 160.93 106.92 159.2 104.3 157.14C102.56 155.78 100.32 152.55 100.32 150.25C100.36 147.81 102.56 144.35 104.3 143.41C108.89 141.02 113.67 138.77 118.45 138.26C127.4 137.37 136.44 138.02 145.39 137.51C147.07 137.41 149.23 135.63 150.26 133.52C154.43 125.04 158.27 116.1 162.77 106.12C159.72 106.12 157.57 106.21 155.46 106.16C151.15 105.98 148.62 102.56 148.48 96.93C148.39 91.26 150.82 87.61 155.09 87.42C159.16 87.24 163.28 86.95 167.31 87.47C170.5 87.84 172.23 85.78 173.87 81.99C177.67 73.27 181.56 64.65 185.49 56.13C185.49 54.19 185.49 38.75 185.49 36.82C185.49 33.17 182.35 30.17 178.46 30.17C164.64 30.17 54.07 30.17 40.25 30.17C36.36 30.17 33.22 33.12 33.22 36.82C33.22 59.39 33.22 239.9 33.22 262.46C33.22 266.12 36.36 269.11 40.25 269.11C54.08 269.11 164.73 269.11 178.56 269.11C182.45 269.11 185.59 266.16 185.59 262.46C185.59 260.23 185.59 242.39 185.59 240.16C181.84 232.34 178.14 224.46 174.29 216.73C173.36 214.77 171.3 213.27 169.7 213.08C165.49 212.61 161.27 213.03 157.05 212.99Z" id="d229Dd7Lui"></path><path d="M185.63 134.56C185.4 135.35 185.21 136.1 184.98 136.9C185.21 136.85 185.4 136.85 185.63 136.85C185.63 136.39 185.63 134.79 185.63 134.56Z" id="goaOzaDuy"></path><path d="M185.63 163.28C185.54 163.28 185.45 163.32 185.35 163.32C185.4 163.7 185.49 164.03 185.63 164.35C185.63 164.14 185.63 163.38 185.63 163.28Z" id="a4FY8dlbs"></path><path d="M434.75 173.07C449.74 173.07 461.92 161.59 461.92 147.44C461.92 138.46 461.92 66.65 461.92 57.67C444.35 52.1 422.52 47.13 397.36 43.01C397.36 53.45 397.36 137 397.36 147.44C397.36 161.59 409.54 173.07 424.53 173.07C426.57 173.07 433.72 173.07 434.75 173.07Z" id="a69qlr1ESB"></path><path d="M349.43 120.03C343.85 102.88 336.36 87.05 328.81 73.6C317.71 53.74 306.56 38.98 301.45 32.56C274.32 30.83 245.51 29.93 215.67 29.93C215.67 29.93 215.67 29.93 215.67 29.93C215.24 29.93 214.82 29.93 214.45 29.93C214.45 40.74 214.45 127.21 214.45 138.02C222.27 138.49 230.05 138.96 237.87 139.29C239.09 139.33 240.68 137.93 241.48 136.43C245.6 128.84 250.01 121.48 253.47 113.14C257.32 103.96 262.14 101.29 269.08 104.43C265.33 118.44 261.53 132.63 257.5 147.81C261.35 148.28 264.63 148.66 267.91 149.08C267.91 149.36 267.91 149.27 267.91 149.55C264.72 150.06 261.49 150.58 257.55 151.24C261.81 166.09 265.84 180.24 269.87 194.39C263.64 197.01 258.77 196.21 254.79 187.03C251.04 178.41 246.31 170.82 241.86 162.95C241.01 161.4 239.47 159.81 238.29 159.9C230.38 160.32 222.41 160.79 214.49 161.26C214.49 172.04 214.49 258.29 214.49 269.07C214.92 269.07 215.34 269.07 215.71 269.07C215.71 269.07 215.71 269.07 215.71 269.07C253.24 269.07 289.08 267.62 322.07 264.95C335.09 251.17 344.04 236.79 349.85 222.22C356.08 206.43 358.7 190.36 358.7 174.52C358.7 155.69 355 137.18 349.43 120.03Z" id="hLAKosLCg"></path><path d="M461.92 147.39C461.92 161.54 449.74 173.02 434.75 173.02C433.72 173.02 425.55 173.02 424.53 173.02C409.54 173.02 397.36 161.54 397.36 147.39C397.36 136.95 397.36 53.45 397.36 43.01C372.15 38.88 343.57 35.6 312.7 33.36C316.02 37.81 320.24 43.66 324.88 50.74C335.75 67.42 348.82 90.75 357.58 117.45C363.39 135.26 367.33 154.61 367.33 174.52C367.33 191.2 364.56 208.25 357.91 225.03C352.66 238.29 344.93 251.31 334.29 263.87C437.65 254.36 509.76 232.85 509.76 207.83C509.76 196.16 509.76 102.79 509.76 91.12C509.71 78.8 492.14 67.28 461.92 57.67C461.92 75.62 461.92 138.42 461.92 147.39Z" id="c5Hopf18l"></path><path d="M298.5 29.04L298.5 29.04L298.64 28.95L298.5 29.04Z" id="l3SO2VnXLx"></path><path d="M184.93 166.18C184.98 164.59 184.74 164.35 183.01 164.54C179.07 164.96 175.14 165.43 171.2 165.85C171.06 165.85 170.87 165.85 170.64 165.85C170.92 164.82 171.16 163.84 171.53 162.95C172.05 161.68 171.67 160.75 170.55 159.9C166.61 156.81 162.72 153.67 158.83 150.53C158.55 150.3 158.27 150.02 157.85 149.64C158.74 149.22 159.54 148.8 160.33 148.47C161.18 148.1 161.5 147.58 161.22 146.69C160.43 143.97 159.72 141.26 158.93 138.35C161.32 138.87 163.52 139.29 165.72 139.76C167.41 140.13 167.78 139.9 168.25 138.3C168.49 137.51 168.72 136.76 169.05 135.77C170.97 137.88 172.75 139.9 174.58 141.86C175.18 142.52 175.7 143.5 176.78 143.04C177.76 142.61 177.43 141.63 177.25 140.79C176.5 136.8 175.75 132.78 175 128.79C174.9 128.37 174.86 128 174.81 127.39C175.89 127.95 176.82 128.42 177.71 128.84C179.73 129.87 180.2 129.73 181.23 127.81C182.63 125.19 184.09 122.56 185.59 119.8C187.09 122.56 188.49 125.19 189.94 127.76C191.02 129.73 191.44 129.82 193.55 128.79C194.44 128.32 195.33 127.9 196.46 127.34C195.99 129.82 195.57 132.12 195.14 134.37C194.72 136.66 194.25 138.91 193.88 141.21C193.79 141.77 194.16 142.43 194.35 143.04C195 142.8 195.8 142.71 196.22 142.24C198.19 140.18 200.06 138.02 202.12 135.73C202.45 136.76 202.69 137.6 202.97 138.49C203.39 139.85 203.81 140.08 205.26 139.8C207.51 139.33 209.76 138.87 212.24 138.35C211.54 140.93 210.89 143.32 210.23 145.71C210.14 146.08 210.04 146.46 209.95 146.78C209.67 147.63 210 148.14 210.79 148.47C211.64 148.85 212.43 149.22 213.37 149.69C210.42 152.08 207.56 154.37 204.7 156.67C203.25 157.84 201.84 159.01 200.34 160.14C199.41 160.84 199.22 161.68 199.5 162.67C199.83 163.7 200.16 164.73 200.53 165.95C198.1 165.67 195.8 165.43 193.55 165.2C191.68 165.01 189.8 164.73 187.93 164.59C186.48 164.45 186.2 164.73 186.24 166.09C186.34 170.49 186.43 174.9 186.52 179.3C185.77 179.25 185.07 179.25 184.37 179.25C184.56 174.9 184.74 170.54 184.93 166.18Z" id="d2knOuG0Tg"></path></defs><g><g><g><use xlink:href="#d229Dd7Lui" opacity="1" fill="#5b62b9" fill-opacity="1"></use><g><use xlink:href="#d229Dd7Lui" opacity="1" fill-opacity="0" stroke="#000000" stroke-width="1" stroke-opacity="0"></use></g></g><g><use xlink:href="#goaOzaDuy" opacity="1" fill="#5b62b9" fill-opacity="1"></use><g><use xlink:href="#goaOzaDuy" opacity="1" fill-opacity="0" stroke="#000000" stroke-width="1" stroke-opacity="0"></use></g></g><g><use xlink:href="#a4FY8dlbs" opacity="1" fill="#5b62b9" fill-opacity="1"></use><g><use xlink:href="#a4FY8dlbs" opacity="1" fill-opacity="0" stroke="#000000" stroke-width="1" stroke-opacity="0"></use></g></g><g><use xlink:href="#a69qlr1ESB" opacity="1" fill="#000000" fill-opacity="0"></use><g><use xlink:href="#a69qlr1ESB" opacity="1" fill-opacity="0" stroke="#000000" stroke-width="1" stroke-opacity="0"></use></g></g><g><use xlink:href="#hLAKosLCg" opacity="1" fill="#5b62b9" fill-opacity="1"></use><g><use xlink:href="#hLAKosLCg" opacity="1" fill-opacity="0" stroke="#000000" stroke-width="1" stroke-opacity="0"></use></g></g><g><use xlink:href="#c5Hopf18l" opacity="1" fill="#5b62b9" fill-opacity="1"></use><g><use xlink:href="#c5Hopf18l" opacity="1" fill-opacity="0" stroke="#000000" stroke-width="1" stroke-opacity="0"></use></g></g><g><use xlink:href="#l3SO2VnXLx" opacity="1" fill="#ffffff" fill-opacity="1"></use><g><use xlink:href="#l3SO2VnXLx" opacity="1" fill-opacity="0" stroke="#000000" stroke-width="1" stroke-opacity="0"></use></g></g><g><use xlink:href="#d2knOuG0Tg" opacity="1" fill="#ff0000" fill-opacity="1"></use><g><use xlink:href="#d2knOuG0Tg" opacity="1" fill-opacity="0" stroke="#000000" stroke-width="1" stroke-opacity="0"></use></g></g></g></g></svg>