<?xml version="1.0" encoding="UTF-8"?>
<svg width="220px" height="140px" viewBox="0 0 220 140" version="1.1" xmlns="http://www.w3.org/2000/svg" xmlns:xlink="http://www.w3.org/1999/xlink">
    <!-- Generator: Sketch 42 (36781) - http://www.bohemiancoding.com/sketch -->
    <title>Cordova_220x140</title>
    <desc>Created with Sketch.</desc>
    <defs></defs>
    <g id="Technologies" stroke="none" stroke-width="1" fill="none" fill-rule="evenodd">
        <g id="Cordova_220x140">
            <rect id="Rectangle-3" x="0" y="0" width="220" height="140"></rect>
            <g id="Cordova_Logo" transform="translate(78.000000, 38.000000)">
                <rect id="Rectangle" x="0" y="0" width="64" height="64"></rect>
                <path d="M58.208,63.136 L48.0746667,63.136 L48.7866667,54.592 L43.808,54.592 L43.0973333,63.136 L22.12,63.136 L21.408,54.592 L16.4306667,54.592 L17.1413333,63.136 L7.008,63.136 L1.32,26.112 L15.5413333,3.328 L49.6746667,3.328 L63.8973333,26.112 L58.208,63.136 L58.208,63.136 Z M46.8306667,14.72 L37.688,14.72 L38.2973333,18.992 L26.92,18.992 L27.5293333,14.72 L18.3866667,14.72 L12.6973333,26.112 L15.5413333,48.8946667 L49.6746667,48.8946667 L52.52,26.112 L46.8306667,14.72 L46.8306667,14.72 Z M41.8533333,41.3333333 C41.0666667,41.3333333 40.4306667,38.9626667 40.4306667,36.036 C40.4306667,33.1106667 41.0666667,30.74 41.8533333,30.74 C42.6386667,30.74 43.2746667,33.1106667 43.2746667,36.036 C43.2746667,38.9626667 42.6386667,41.3333333 41.8533333,41.3333333 L41.8533333,41.3333333 Z M23.8973333,41.776 C23.112,41.776 22.4746667,39.404 22.4746667,36.4786667 C22.4746667,33.552 23.112,31.1813333 23.8973333,31.1813333 C24.6826667,31.1813333 25.32,33.552 25.32,36.4786667 C25.32,39.404 24.6826667,41.776 23.8973333,41.776 L23.8973333,41.776 Z" id="Shape" fill="#444444"></path>
            </g>
        </g>
    </g>
</svg>